#!OML:ASF G:\JayActor3\Patient Classification 1\Patient 1\Session 2\male.ASF
:FULLY-SPECIFIED
:DEGREES
1196
root -32.8148 15.9954 -4.58056 1260.06 -383.551 -1268.58
lowerback 1.14047 2.6005 -0.482189
upperback 2.18262 3.42606 -1.64967
thorax 1.67129 1.69279 -1.40809
lowerneck -15.007 -1.13902 -1.65535
upperneck 25.441 -3.83917 6.10747
head 10.8313 -1.53979 1.88733
rclavicle -9.19876e-014 1.51076e-014
rhumerus -43.5803 39.8794 -99.4461
rradius 58.365
rwrist -3.99599
rhand -25.1683 4.56484
rfingers 7.12502
rthumb 1.349 -25.4106
lclavicle -9.19876e-014 1.51076e-014
lhumerus -70.9462 -21.1851 103.362
lradius 54.8006
lwrist 23.5413
lhand -21.4352 23.6473
lfingers 7.12502
lthumb 4.95411 53.5694
rfemur -23.3847 17.6232 22.2371
rtibia 58.805
rfoot -12.4579 10.6735
rtoes 33.3702
lfemur -14.1361 -12.786 -3.57383
ltibia 29.5081
lfoot 5.24429 -4.18696
ltoes -28.4213
1197
root -32.9665 16.025 -4.53325 1260.51 -380.27 -1268.9
lowerback 1.13061 2.58967 -0.762495
upperback 2.10981 3.40593 -1.83042
thorax 1.59632 1.6769 -1.43881
lowerneck -14.9472 -1.27744 -1.92979
upperneck 25.263 -4.05302 6.36867
head 10.7748 -1.6468 1.99538
rclavicle -4.11236e-015 -7.95139e-016
rhumerus -42.304 41.3081 -99.6603
rradius 59.1236
rwrist -3.64326
rhand -25.1751 4.85277
rfingers 7.12502
rthumb 1.34245 -25.1228
lclavicle -4.11236e-015 -7.95139e-016
lhumerus -71.5783 -20.1355 103.615
lradius 54.9973
lwrist 24.0343
lhand -22.0265 23.8408
lfingers 7.12502
lthumb 4.38319 53.7755
rfemur -24.221 18.0901 21.291
rtibia 59.2142
rfoot -12.1945 11.0662
rtoes 33.1611
lfemur -12.5467 -10.7871 -4.72605
ltibia 28.9647
lfoot 4.02226 -2.49333
ltoes -29.2439
1198
root -33.1175 16.0565 -4.48619 1260.9 -377.097 -1269.15
lowerback 1.13587 2.53412 -1.0129
upperback 2.04734 3.32455 -1.99532
thorax 1.52317 1.63053 -1.47058
lowerneck -14.9356 -1.47664 -2.31922
upperneck 25.1607 -4.35987 6.70925
head 10.7667 -1.79901 2.13907
rclavicle -4.89507e-015 -7.95139e-015
rhumerus -40.9611 42.7227 -99.862
rradius 59.7841
rwrist -3.23916
rhand -25.1444 5.13114
rfingers 7.12502
rthumb 1.3721 -24.8442
lclavicle -4.89507e-015 -7.95139e-015
lhumerus -72.0702 -19.2135 103.897
lradius 55.0857
lwrist 24.3736
lhand -22.509 24.0392
lfingers 7.12502
lthumb 3.91729 53.9829
rfemur -25.0035 18.3834 20.4152
rtibia 59.5104
rfoot -12.0599 11.3148
rtoes 32.7911
lfemur -11.0879 -8.6793 -5.8219
ltibia 28.3778
lfoot 2.94924 -0.956623
ltoes -29.6671
1199
root -33.2671 16.0895 -4.43963 1261.22 -374.06 -1269.33
lowerback 1.15328 2.43957 -1.22816
upperback 2.01162 3.18993 -2.13846
thorax 1.47061 1.55759 -1.49952
lowerneck -14.9717 -1.73818 -2.81478
upperneck 25.0925 -4.76175 7.14181
head 10.7939 -1.99423 2.32081
rclavicle -4.69629e-015 2.22639e-014
rhumerus -39.5413 44.0788 -100.019
rradius 60.3536
rwrist -2.86861
rhand -25.0544 5.35838
rfingers 7.12502
rthumb 1.459 -24.6164
lclavicle -4.69629e-015 2.22639e-014
lhumerus -72.4084 -18.4619 104.203
lradius 55.0748
lwrist 24.557
lhand -22.8649 24.2341
lfingers 7.12502
lthumb 3.57357 54.1838
rfemur -25.7044 18.4881 19.6543
rtibia 59.7016
rfoot -12.1009 11.349
rtoes 32.18
lfemur -9.77572 -6.62345 -6.81307
ltibia 27.7812
lfoot 2.01947 0.397953
ltoes -29.7928
1200
root -33.4147 16.123 -4.39288 1261.48 -371.191 -1269.44
lowerback 1.18169 2.30935 -1.40324
upperback 2.00839 3.00695 -2.25986
thorax 1.44562 1.46053 -1.52815
lowerneck -15.0305 -2.06937 -3.36744
upperneck 24.9967 -5.26922 7.65075
head 10.8309 -2.2342 2.52443
rclavicle -5.80948e-014 6.36111e-015
rhumerus -38.0556 45.3284 -100.113
rradius 60.8685
rwrist -2.59686
rhand -24.8963 5.5322
rfingers 7.12502
rthumb 1.61173 -24.4415
lclavicle -5.80948e-014 6.36111e-015
lhumerus -72.5851 -17.917 104.508
lradius 54.9758
lwrist 24.6258
lhand -23.056 24.3921
lfingers 7.12502
lthumb 3.38897 54.3449
rfemur -26.3265 18.3747 19.0448
rtibia 59.8055
rfoot -12.3514 11.0947
rtoes 31.1746
lfemur -8.64265 -4.82661 -7.67169
ltibia 27.2226
lfoot 1.20901 1.58888
ltoes -29.7848
1201
root -33.5579 16.1556 -4.34529 1261.72 -368.465 -1269.47
lowerback 1.21368 2.12367 -1.57733
upperback 2.02947 2.7502 -2.33322
thorax 1.44029 1.32631 -1.50755
lowerneck -15.0667 -2.44753 -4.00209
upperneck 24.8275 -5.83161 8.22199
head 10.8511 -2.50024 2.7558
rclavicle -6.11263e-015 -5.56597e-015
rhumerus -36.5534 46.5645 -100.17
rradius 61.3553
rwrist -2.47759
rhand -24.6672 5.66766
rfingers 7.12502
rthumb 1.83301 -24.3042
lclavicle -6.11263e-015 -5.56597e-015
lhumerus -72.5899 -17.4606 104.775
lradius 54.8137
lwrist 24.626
lhand -23.1044 24.5159
lfingers 7.12502
lthumb 3.3423 54.4694
rfemur -26.8898 18.1179 18.6128
rtibia 59.8527
rfoot -12.8197 10.4571
rtoes 29.8023
lfemur -7.70764 -3.38577 -8.3884
ltibia 26.745
lfoot 0.499142 2.6079
ltoes -29.7295
1202
root -33.6956 16.1866 -4.29604 1261.96 -365.893 -1269.43
lowerback 1.25098 1.87709 -1.77092
upperback 2.05955 2.4132 -2.342
thorax 1.43732 1.15187 -1.40954
lowerneck -15.0517 -2.86648 -4.70531
upperneck 24.5624 -6.43182 8.82779
head 10.8404 -2.78694 3.00477
rclavicle -3.67255e-014 3.18055e-015
rhumerus -35.1419 47.7907 -100.208
rradius 61.8993
rwrist -2.51803
rhand -24.3821 5.76074
rfingers 7.12502
rthumb 2.1083 -24.2086
lclavicle -3.67255e-014 3.18055e-015
lhumerus -72.4336 -17.0497 104.981
lradius 54.6097
lwrist 24.6331
lhand -23.0525 24.6441
lfingers 7.12502
lthumb 3.39237 54.5968
rfemur -27.4215 17.7108 18.3847
rtibia 59.8651
rfoot -13.4952 9.3675
rtoes 27.956
lfemur -7.00197 -2.41851 -8.95796
ltibia 26.3871
lfoot -0.129524 3.48763
ltoes -29.6917
1203
root -33.8266 16.2151 -4.24438 1262.21 -363.411 -1269.34
lowerback 1.31238 1.58528 -2.02866
upperback 2.08365 2.01553 -2.29135
thorax 1.4119 0.946509 -1.21505
lowerneck -14.9758 -3.31932 -5.45969
upperneck 24.2041 -7.06169 9.4546
head 10.798 -3.09115 3.26447
rclavicle -4.47266e-016 2.22639e-014
rhumerus -33.8624 49.0036 -100.279
rradius 62.4978
rwrist -2.67307
rhand -24.0757 5.85047
rfingers 7.12502
rthumb 2.4042 -24.1157
lclavicle -4.47266e-016 2.22639e-014
lhumerus -72.1334 -16.6243 105.077
lradius 54.3801
lwrist 24.682
lhand -22.9376 24.7531
lfingers 7.12502
lthumb 3.5034 54.704
rfemur -27.9398 17.2089 18.3466
rtibia 59.8631
rfoot -14.3144 7.83386
rtoes 25.6326
lfemur -6.49881 -1.88882 -9.41207
ltibia 26.1659
lfoot -0.692826 4.23005
ltoes -29.764
1204
root -33.9517 16.2405 -4.19068 1262.48 -360.969 -1269.21
lowerback 1.38545 1.23653 -2.36304
upperback 2.08305 1.54275 -2.16364
thorax 1.35462 0.703716 -0.898206
lowerneck -14.7907 -3.78111 -6.30151
upperneck 23.7473 -7.67483 10.0912
head 10.7107 -3.39824 3.54434
rclavicle -5.86415e-015 -1.74931e-014
rhumerus -32.8397 50.3149 -100.458
rradius 63.1996
rwrist -2.92932
rhand -23.7938 5.93172
rfingers 7.12502
rthumb 2.67652 -24.0312
lclavicle -5.86415e-015 -1.74931e-014
lhumerus -71.709 -16.04 105.023
lradius 54.1508
lwrist 24.7954
lhand -22.8373 24.9061
lfingers 7.12502
lthumb 3.6002 54.8554
rfemur -28.4644 16.6478 18.4954
rtibia 59.8486
rfoot -15.1909 5.93214
rtoes 23.067
lfemur -6.17756 -1.65166 -9.75031
ltibia 26.0827
lfoot -1.19631 4.78134
ltoes -29.9803
1205
root -34.0722 16.2627 -4.13632 1262.78 -358.514 -1269.05
lowerback 1.4654 0.794926 -2.72365
upperback 2.05673 1.18687 -2.05638
thorax 1.27857 0.62355 -0.584724
lowerneck -14.5276 -4.31566 -7.08714
upperneck 23.213 -8.42297 10.7732
head 10.6059 -3.76289 3.80981
rclavicle -4.37326e-015 3.18055e-015
rhumerus -32.0075 51.3571 -100.715
rradius 63.9707
rwrist -3.17675
rhand -23.5722 6.02424
rfingers 7.12502
rthumb 2.89046 -23.9359
lclavicle -4.37326e-015 3.18055e-015
lhumerus -71.2654 -15.6223 104.808
lradius 53.9447
lwrist 25.0315
lhand -22.7699 25.0503
lfingers 7.12502
lthumb 3.6653 54.9985
rfemur -28.9965 16.0362 18.8122
rtibia 59.8138
rfoot -16.0549 3.77406
rtoes 20.3859
lfemur -5.98766 -1.61012 -9.99891
ltibia 26.1179
lfoot -1.67456 5.143
ltoes -30.3077
1206
root -34.1915 16.2825 -4.08269 1263.1 -356.024 -1268.85
lowerback 1.52061 0.573744 -3.06064
upperback 2.01116 0.879715 -1.97553
thorax 1.19809 0.463557 -0.313354
lowerneck -14.1688 -6.33456 -7.46158
upperneck 22.9385 -8.84756 11.0432
head 10.5456 -3.08817 4.06684
rclavicle -4.87022e-015 -7.95139e-015
rhumerus -31.4015 52.1801 -101.09
rradius 64.8085
rwrist -3.38376
rhand -23.4291 6.11675
rfingers 7.12502
rthumb 3.02871 -23.8415
lclavicle -4.87022e-015 -7.95139e-015
lhumerus -70.8423 -15.3246 104.409
lradius 53.7866
lwrist 25.3384
lhand -22.7889 25.1737
lfingers 7.12502
lthumb 3.64699 55.1222
rfemur -29.5456 15.3394 19.2648
rtibia 59.7409
rfoot -16.8379 1.57132
rtoes 17.967
lfemur -5.91097 -1.60776 -10.175
ltibia 26.2511
lfoot -2.13086 5.28409
ltoes -30.8164
